<?xml version="1.0" encoding="UTF-8"?><svg id="_イヤー_2" xmlns="http://www.w3.org/2000/svg" viewBox="0 0 798.48 27.17"><defs><style>.cls-1{fill:#f4cf8e;}</style></defs><g id="_"><g><path class="cls-1" d="M159.62,1.52V.31c-.55,.02-.52,0-1.42,0-3.48,0-3.48-.22-6.96-.22l-6.95-.04c-3.48,0-3.48,.25-6.95,.25h-1.09c-2.43-.07-2.79-.3-5.86-.3-1.91,0-2.78,.03-3.74,.06-.79,.02-1.65,.04-3.21,.04l-6.95-.03h-6.95c-3.48-.01-3.48,.23-6.95,.23l-6.95-.06c-3.48,0-3.48-.19-6.95-.19l-6.95-.04c-3.47,0-3.47,.14-6.95,.14s-3.48,.09-6.95,.09-3.48-.1-6.95-.1-3.48-.09-6.95-.09-3.48,.28-6.95,.28-3.48-.23-6.95-.23l-5.59-.03h-1.36c-3.48,0-3.48,.1-6.95,.1s-3.48,.09-6.95,.09-3.48-.08-6.95-.08l-6.95,.03C2.89,.23,2.03,.31,.7,.31c-.23-.02-.46,0-.7,0v1.83c.64,0,1.17,.1,1.8,.02,.23,1.26,.28,2.75,.15,3.74L0,5.87v3.64c3.33,0,5.22,.05,6.89,.2,.63,.05,1.23,.14,1.9,.22-.2,.49-.84,1.17-2.02,2C5.92,12.51,3.2,13.99,0,15.67v1.86c1.84,1.19,3.81,2.44,5.89,3.69,.33,.47,.85,1.41,.04,1.71-1.47-.16-2.93-.44-5.93-.44v2.54c3.33,0,4.75,.9,6.42,1.27,1.66,.37,3.56,.51,6.89,.51s4.67-.56,6.33-.93c1.66-.37,4.3-.68,7.63-.68s4.56,.37,6.23,.74c1.66,.37,4.36,.92,6.42,.8,2.39-.14,4.59-.55,6.26-.92,1.66-.37,3.72-.54,7.05-.54s5.31,.23,6.97,.59c1.66,.37,3.01,.66,6.33,.66s4.84-.16,6.5-.53c1.66-.37,3.58-.67,6.9-.67s5.11,.24,6.77,.61c1.66,.37,2.65,.45,6.43,.49,2.53,.03,5.04,.09,6.7-.28,1.66-.37,3.28-1.04,6.6-1.04s4.81,.77,6.47,1.14c1.66,.37,3.5,.65,6.83,.65s5.36-.13,7.02-.5c1.66-.37,2.96-.99,6.28-.99s5.4,.03,7.06,.4c1.66,.37,3.87,1.36,7.19,1.36s4.49-.33,6.15-.7c1.66-.37,2.87-1.43,6.19-1.43v-2.54c-3.32,0-4.53,.41-6.19,.55l-1.62,.13c-.09-.05-.21-.11-.36-.18-1.44-.63,2.92-3.26,7.7-5.78l.47,.3v-1.86l-.43-.29c-1.26-.88-2.4-1.65-3.43-2.34-.05-.05-.12-.11-.21-.18-1.25-1.03-2.44-2.28-2.13-3.01,1.6-.14,2.96-.34,6.19-.34v-3.64c-1.05,0-1.9,.06-2.63,.15,.03-1.37,.01-2.88,0-4.01h.52c.87,0,1.55,.06,2.12,.13v-.58c.06-.01,.14-.03,0-.04ZM6.47,6.29c-.92-.18-1.94-.3-3.23-.36-.05-1.29-.07-2.9-.07-3.92,.4-.03,.85-.05,1.39-.05,.79,0,1.4,.02,1.92,.04V6.29ZM150.39,2.17V7.24c-1.35,.14-2.94,.23-4.73,.23h-.16c0-.09,0-.19,0-.3-.1-1.23-.13-3.63-.14-5.04l5.03,.03Zm-10.26-.07c.87,.01,1.73,.03,3.46,.03h.4c.34,1.79,.28,4.07-.08,4.68-.11,.18-.05,.41,.09,.62-1.51-.07-2.49-.24-3.41-.44-.26-1.15-.62-3.18-.46-4.89Zm-3.48-.03h1.97c.27,1.27,.28,3.32,0,4.45-.68-.2-1.39-.45-2.27-.65,.02-1.3,.01-2.72,0-3.8h.29Zm2.78,7.76c1.2,.1,2.19,.21,3.9,.25l.07,.05c1.48,.9-3.3,2.82-5.11,4.62-.21,.21-.52,.48-.91,.8-3.26-2.09-6.51-4.06-6.51-4.93,0-.98,1.81-1.26,1.81-1.26h.32c3.32,0,4.76,.32,6.42,.46Zm-9.73-7.55c2.78,0,3.34-.14,5.23-.19l.04,3.54c-.58-.07-1.22-.11-1.97-.11-1.44,0-2.49,.18-3.36,.41-.08-1.23-.14-2.64-.16-3.65h.21Zm-3.78-.06l2.12,.06V6.46c-.43,.15-.85,.29-1.29,.39-.77,.17-1.63,.3-2.65,.38v-.06c-.1-1.22-.13-3.57-.14-4.99l1.95,.04Zm-7.09,0c1.02-.02,1.86-.05,3.79-.05,.33,1.78,.27,4.03-.09,4.64-.09,.15-.06,.34,.03,.52-.84,.04-1.77,.06-2.85,.06h-.38c-.26-1.11-.69-3.33-.5-5.17Zm-5.7-.01c.66,.02,1.45,.04,2.67,.04h1.51c.33,1.56,.27,4.38-.24,5.08-1.64-.08-2.88-.24-3.96-.46,.05-1.48,.04-3.31,.02-4.66Zm6.58,7.88c2.07,0,3.65-.02,4.95-.08-.46,.73-2.6,1.95-3.83,2.95-.09,.07-.16,.13-.21,.18-1.03,.68-2.32,1.35-3.43,2.34l-.38,.32c-3.22-1.69-5.97-3.18-6.82-3.78-1.55-1.09-2.19-1.93-2.08-2.4,2.27,.03,3.44,.13,4.82,.24,1.66,.14,3.65,.23,6.97,.23Zm-10.86-7.99c1.34,0,2.16,.02,2.87,.05,0,1.43,.03,3.33,.07,4.44-1.1-.22-2.26-.39-4.19-.44-.1-1.36-.16-2.98-.18-4.07h1.43Zm-2.88-.05V6.14c-1.42,0-2.51,.05-3.41,.12-.06-1.38-.08-3.26-.09-4.35,1.71,.01,2.49,.07,3.5,.13Zm-8.71,.13c1.27-.08,1.99-.22,3.81-.25,.33,1.55,.34,3.56,.1,4.51-.43,.07-.85,.15-1.27,.24-.67,.15-1.39,.29-2.23,.4-.26-1.19-.61-3.21-.42-4.89Zm-3.22,12.59c-.22,.21-.54,.48-.94,.8-3.39-2.09-6.75-4.06-6.75-4.93,0-.32,.21-.57,.48-.75,1.51,.11,3.24,.19,6.18,.19,2.7,0,4.47-.07,5.93-.18l.4,.25c1.54,.9-3.42,2.82-5.3,4.62Zm-1.14-12.52h2.83c.33,1.51,.28,4.24-.19,5.03-.75,.04-1.58,.07-2.53,.07h-.15c.07-1.54,.06-3.6,.04-5.1Zm-1.42,0c.01,1.83,.04,4.39,.12,5.09-1.19-.03-2.16-.1-3.01-.19-.14-1.43-.23-3.55-.26-4.91h3.15Zm-4.6,0V6.86l-.64-.13c-.86-.19-1.58-.43-2.58-.56-.05-1.26-.07-2.9-.08-3.99l3.31,.03Zm-7.29-.04h2.63c.25,1.34,.28,2.94,.12,3.91-.69,0-1.49,.04-2.5,.16-.22-1.18-.41-2.73-.26-4.07Zm-4.17,0h2.63c.26,1.13,.3,3,.09,4.2-1.05,.05-1.94,.02-2.73,0,.03-1.39,.02-2.99,0-4.21Zm1.95,7.53c.41,.2,.78,.49,.78,.92,0,.87-3.37,2.84-6.75,4.93-.4-.32-.72-.6-.94-.8-1.88-1.8-6.84-3.72-5.3-4.62h0l1.35,.02c3.33,0,4.94-.26,6.6-.4,1.18-.1,2.47-.04,4.26-.05Zm-3.37-7.53c0,1.34,.02,3.1,.06,4.22-.33,.02-.65,.05-.96,.12-1,.22-1.98,.55-3.32,.78-.16-1.44-.25-3.72-.28-5.14l4.49,.02Zm-6.87-.02h.93V7.5c-.48,.04-.99,.06-1.56,.06-.92,0-1.69-.06-2.38-.16,0-.07,0-.14,0-.23-.1-1.21-.13-3.55-.14-4.98,.77-.03,1.63-.05,3.14-.05Zm-8.2,.12h1.24c1.1,0,1.85,0,2.47-.02,.31,1.77,.25,3.97-.1,4.57-.05,.08-.06,.18-.05,.28-.92-.23-1.68-.49-2.46-.67l-.77-.16c-.22-1.12-.42-2.64-.32-3.99Zm-1.46-.02c.2,1.08,.23,2.65,.07,3.75-.92-.11-1.99-.19-3.32-.21,.02-1.24,0-2.57,0-3.61,1.51,0,2.24,.04,3.26,.07Zm-.6,7.28c.22,.45-.39,1.33-2.05,2.49-.86,.6-3.6,2.09-6.82,3.78l-.38-.32c-1.11-.98-2.4-1.65-3.43-2.34-.05-.05-.12-.11-.21-.18-1.21-.99-3.31-2.19-3.81-2.92,3.11-.01,4.38-.24,6-.38,1.66-.14,3.69-.19,7.02-.19,1.48,0,2.67,.02,3.67,.06Zm-4.08-7.35l.05,3.61c-1.42,0-2.6,.04-3.61,.1-.09-1.32-.14-2.83-.16-3.84,1.08,.05,1.87,.13,3.73,.14Zm-6.52-.2h1.35V6.03c-.52,.07-1,.15-1.45,.25-.83,.18-1.56,.43-2.51,.63-.09-1.33-.11-3.6-.12-4.9,.67-.02,1.47-.04,2.72-.04Zm-7.85,.13h.9c1.33,0,2.15-.02,2.86-.04,.35,1.8,.3,4.13-.07,4.75-.06,.1-.07,.23-.03,.35-.62,.07-1.33,.11-2.17,.11h-1.01c-.27-1.17-.68-3.38-.46-5.17Zm-5.71-.05h.98l3.17,.04c.36,1.47,.33,4.3-.15,5.15-1.6-.04-2.82-.14-3.88-.37l-.14-.04c.05-1.53,.04-3.42,.02-4.78Zm-1.42,0c0,1.39,.03,3.26,.07,4.41-1.14-.34-2.52-.73-4.23-.88-.07-1.2-.12-2.51-.14-3.45l4.3-.08Zm-2.29,7.44c.24,.18,.55,.39,.96,.63,1.54,.9-3.42,2.82-5.3,4.62-.2,.19-.49,.43-.84,.72-3.42-2.07-6.86-4.02-6.86-4.88,0-.29,.17-.51,.41-.69,.75-.1,1.38-.22,2.1-.28,1.66-.14,2.83-.27,6.15-.27,1.28,0,2.39,.06,3.37,.13Zm-3.6-7.35h.14v3.37c-1.51,0-2.57,.07-3.43,.19-.04-1.23-.06-2.7-.07-3.66,.83,.05,1.7,.1,3.36,.1Zm-8.55-.19c.44-.02,.96-.03,1.59-.03,.95,0,1.63,.02,2.2,.04,.27,1.3,.32,2.91,.19,3.95l-1.36,.3c-.76,.17-1.43,.48-2.25,.78-.27-1.26-.62-3.35-.38-5.03Zm-4.43,5.4c.07-1.54,.06-3.62,.04-5.12,1.28-.03,2-.1,2.79-.17,.39,1.53,.34,4.61-.21,5.3-.05,.07-.08,.13-.09,.18-.49,.07-1.04,.1-1.67,.1-.31,0-.6,0-.88-.02l.02-.27Zm-4.3-.62c-.13-1.45-.2-3.4-.22-4.64,.83,.06,1.64,.13,3.15,.14,.01,1.86,.04,4.46,.12,5.11l.03,.15c-1.29-.18-2.22-.49-3.07-.77ZM1.11,16.4c4.01-2.05,7.91-3.87,8.61-4.24,.71-.38,1.92-.96,3.06-1.5,2.34,.99,7.22,3.97,9.95,5.67-2.46,1.86-6.42,4.54-9.14,5.95-3.51-1.2-8.1-3.1-12.48-5.89Zm26.15,6.16c-3.33,0-5.96,.12-7.63,.26l-2.12,.2c-.19-.09-.37-.2-.54-.3-.74-.46,3.71-3.42,7.07-5.55l.62,.39c3.77,2.43,7.22,4.21,7.75,5.19-1.25-.1-2.57-.19-5.17-.19Zm8.31-.38c-2.99-1.64-7.71-4.25-10.26-5.81l1.76-1.1c1.75-1.11,6.88-3.97,9.24-5.2,2.63,1.51,6.07,3.85,10.17,6.53-4.16,2.17-8.71,4.47-10.91,5.58Zm17.63,.41c-3.33,0-5.38,.07-7.05,.21-1.6,.14-2.84,.48-5.88,.51-.1-.06-.23-.13-.39-.2-1.44-.64,2.92-3.26,7.7-5.78,1.98,1.29,4.11,2.64,6.36,4,.23,.32,.54,.86,.46,1.27h-1.2Zm6.22-.04c-3.05-1.08-6.68-2.89-10.45-5.95,4.08-2.09,8.1-3.97,8.81-4.34,.63-.33,1.66-.83,2.68-1.32,2.58,1.4,6.18,3.43,7.59,4.32l1.89,1.19c-2.56,1.6-7.49,4.4-10.53,6.1Zm13.59,.31c-1.66,.14-3.18,.2-6.5,.2l-2.05-.02c-.63-.83,2.11-3.23,6.35-6.06,3.21,2.03,7.63,4.93,7.41,5.63-2.32,.03-3.85,.13-5.2,.24Zm9.21-.24c-2.77-1.31-7.41-4.45-10.06-6.47,2.23-1.33,7.52-4.42,10.08-5.46,2.56,1.04,7.85,4.13,10.08,5.46-2.65,2.02-7.29,5.16-10.06,6.47h-.04Zm17.88,.27l-.29,.03c-1.66,.14-3.52-.04-6.7,.11-3.62,.17-4.77-.05-6.43-.19h-.14l-.2-.13c-.76-.48,3.95-3.58,7.34-5.72,4,2.67,6.67,4.96,6.42,5.9Zm5.37-.37h-.44c-3.04-1.7-7.95-4.48-10.5-6.08l1.89-1.19c1.44-.91,5.16-3.01,7.75-4.41,1.08,.51,2.19,1.05,2.86,1.41,.72,.38,4.73,2.25,8.81,4.34-3.74,3.03-7.35,4.85-10.38,5.92Zm19.46,.57l-.06,.03c-1.33,.06-2.97,.08-5.16,.08-3.33,0-5.16-.11-6.83-.25l-2.43-.25c-.18-.41,.18-1.03,.42-1.38,2.25-1.36,4.37-2.71,6.36-4,4.79,2.52,9.14,5.14,7.7,5.78Zm-6.59-6.5c3.46-2.26,6.45-4.29,8.88-5.77,2.56,1.15,7.35,4.05,9.42,5.33-2.11,1.67-5.52,4.1-8.15,5.63-2.38-1.2-6.42-3.25-10.14-5.19Zm25.71,6.47l-.1,.12c-1.6-.12-2.85-.3-3.88-.39-1.66-.14-3.74-.15-7.06-.15-.84,0-1.55,.02-2.17,.04-.49-.58,3.92-3.59,7.11-5.68,4.1,2.84,6.75,5.25,6.11,6.07Zm13.97-6.57c-3.85,2.01-8.05,4.14-10.39,5.32-2.9-1.69-6.74-3.97-8.87-5.35l1.83-1.19c1.52-1,5.67-3.41,8.15-4.78,2.5,1.5,5.63,3.62,9.28,6.01Zm-4.75-9.7c-.35,.08-.76,.15-1.19,.22-.14-1.45-.22-3.53-.25-4.86,1.64-.03,2.32-.09,3.72-.13,0,1.3,.02,3.04,.06,4.21-.86,.18-1.57,.39-2.34,.56Z"/><path class="cls-1" d="M319.31,1.52V.31c-.55,.02-.52,0-1.42,0-3.48,0-3.48-.22-6.96-.22l-6.95-.04c-3.48,0-3.48,.25-6.95,.25h-1.09c-2.43-.07-2.79-.3-5.86-.3-1.91,0-2.78,.03-3.74,.06-.79,.02-1.65,.04-3.21,.04l-6.95-.03h-6.95c-3.48-.01-3.48,.23-6.95,.23l-6.95-.06c-3.48,0-3.48-.19-6.95-.19l-6.95-.04c-3.47,0-3.47,.14-6.95,.14s-3.48,.09-6.95,.09-3.48-.1-6.95-.1-3.48-.09-6.95-.09-3.48,.28-6.95,.28-3.48-.23-6.95-.23l-5.59-.03h-1.36c-3.48,0-3.48,.1-6.95,.1s-3.48,.09-6.95,.09-3.48-.08-6.95-.08l-6.95,.03c-2.36,0-3.22,.08-4.54,.08-.23-.02-.46,0-.7,0v1.83c.64,0,1.17,.1,1.8,.02,.23,1.26,.28,2.75,.15,3.74l-1.95-.02v3.64c3.32,0,5.22,.05,6.89,.2,.63,.05,1.23,.14,1.9,.22-.2,.49-.84,1.17-2.02,2-.85,.6-3.57,2.07-6.77,3.75v1.86c1.84,1.19,3.81,2.44,5.89,3.69,.33,.47,.85,1.41,.04,1.71-1.47-.16-2.93-.44-5.92-.44v2.54c3.32,0,4.75,.9,6.42,1.27,1.66,.37,3.56,.51,6.89,.51s4.67-.56,6.33-.93c1.66-.37,4.3-.68,7.63-.68s4.56,.37,6.23,.74c1.66,.37,4.36,.92,6.42,.8,2.39-.14,4.59-.55,6.26-.92,1.66-.37,3.72-.54,7.04-.54s5.31,.23,6.97,.59c1.66,.37,3.01,.66,6.33,.66s4.84-.16,6.5-.53c1.66-.37,3.58-.67,6.9-.67s5.11,.24,6.77,.61c1.66,.37,2.65,.45,6.43,.49,2.53,.03,5.04,.09,6.7-.28,1.66-.37,3.28-1.04,6.6-1.04s4.81,.77,6.47,1.14c1.66,.37,3.5,.65,6.83,.65s5.36-.13,7.02-.5c1.66-.37,2.96-.99,6.28-.99s5.4,.03,7.06,.4c1.66,.37,3.87,1.36,7.19,1.36s4.49-.33,6.15-.7c1.66-.37,2.87-1.43,6.19-1.43v-2.54c-3.33,0-4.53,.41-6.19,.55l-1.62,.13c-.09-.05-.21-.11-.36-.18-1.44-.63,2.92-3.26,7.7-5.78l.47,.3v-1.86l-.43-.29c-1.26-.88-2.4-1.65-3.43-2.34-.05-.05-.12-.11-.21-.18-1.25-1.03-2.44-2.28-2.13-3.01,1.6-.14,2.96-.34,6.19-.34v-3.64c-1.05,0-1.9,.06-2.63,.15,.03-1.37,.01-2.88,0-4.01h.52c.87,0,1.55,.06,2.12,.13v-.58c.06-.01,.14-.03,0-.04ZM166.16,6.29c-.92-.18-1.94-.3-3.23-.36-.05-1.29-.07-2.9-.07-3.92,.4-.03,.85-.05,1.39-.05,.79,0,1.4,.02,1.92,.04V6.29ZM310.09,2.17V7.24c-1.35,.14-2.94,.23-4.73,.23h-.16c0-.09,0-.19,0-.3-.1-1.23-.13-3.63-.14-5.04l5.03,.03Zm-10.26-.07c.87,.01,1.73,.03,3.46,.03h.4c.34,1.79,.28,4.07-.08,4.68-.11,.18-.05,.41,.09,.62-1.51-.07-2.49-.24-3.41-.44-.26-1.15-.62-3.18-.46-4.89Zm-3.48-.03h1.97c.27,1.27,.28,3.32,0,4.45-.68-.2-1.39-.45-2.27-.65,.02-1.3,.01-2.72,0-3.8h.29Zm2.78,7.76c1.2,.1,2.19,.21,3.9,.25l.07,.05c1.48,.9-3.3,2.82-5.11,4.62-.21,.21-.52,.48-.91,.8-3.26-2.09-6.51-4.06-6.51-4.93,0-.98,1.81-1.26,1.81-1.26h.32c3.32,0,4.76,.32,6.42,.46Zm-9.73-7.55c2.78,0,3.34-.14,5.23-.19l.04,3.54c-.58-.07-1.22-.11-1.97-.11-1.44,0-2.49,.18-3.36,.41-.08-1.23-.14-2.64-.16-3.65h.21Zm-3.78-.06l2.12,.06V6.46c-.43,.15-.85,.29-1.29,.39-.77,.17-1.63,.3-2.65,.38v-.06c-.1-1.22-.13-3.57-.14-4.99l1.95,.04Zm-7.09,0c1.02-.02,1.86-.05,3.79-.05,.33,1.78,.27,4.03-.09,4.64-.09,.15-.06,.34,.03,.52-.84,.04-1.77,.06-2.85,.06h-.38c-.26-1.11-.69-3.33-.5-5.17Zm-5.7-.01c.66,.02,1.45,.04,2.67,.04h1.51c.33,1.56,.27,4.38-.24,5.08-1.64-.08-2.88-.24-3.96-.46,.05-1.48,.04-3.31,.02-4.66Zm6.58,7.88c2.07,0,3.65-.02,4.95-.08-.46,.73-2.6,1.95-3.83,2.95-.09,.07-.16,.13-.21,.18-1.03,.68-2.32,1.35-3.43,2.34l-.38,.32c-3.22-1.69-5.97-3.18-6.82-3.78-1.55-1.09-2.19-1.93-2.08-2.4,2.27,.03,3.44,.13,4.82,.24,1.66,.14,3.65,.23,6.97,.23Zm-10.86-7.99c1.34,0,2.16,.02,2.87,.05,0,1.43,.03,3.33,.07,4.44-1.1-.22-2.26-.39-4.19-.44-.1-1.36-.16-2.98-.18-4.07h1.43Zm-2.88-.05V6.14c-1.42,0-2.51,.05-3.41,.12-.06-1.38-.08-3.26-.09-4.35,1.71,.01,2.49,.07,3.5,.13Zm-8.71,.13c1.27-.08,1.99-.22,3.81-.25,.33,1.55,.34,3.56,.1,4.51-.43,.07-.85,.15-1.27,.24-.67,.15-1.39,.29-2.23,.4-.26-1.19-.61-3.21-.42-4.89Zm-3.22,12.59c-.22,.21-.54,.48-.94,.8-3.39-2.09-6.75-4.06-6.75-4.93,0-.32,.21-.57,.48-.75,1.51,.11,3.24,.19,6.18,.19,2.7,0,4.47-.07,5.93-.18l.4,.25c1.54,.9-3.42,2.82-5.3,4.62Zm-1.14-12.52h2.83c.33,1.51,.28,4.24-.19,5.03-.75,.04-1.58,.07-2.53,.07h-.15c.07-1.54,.06-3.6,.04-5.1Zm-1.42,0c.01,1.83,.04,4.39,.12,5.09-1.19-.03-2.16-.1-3.01-.19-.14-1.43-.23-3.55-.26-4.91h3.15Zm-4.6,0V6.86l-.64-.13c-.86-.19-1.58-.43-2.58-.56-.05-1.26-.07-2.9-.08-3.99l3.31,.03Zm-7.29-.04h2.63c.25,1.34,.28,2.94,.12,3.91-.68,0-1.49,.04-2.5,.16-.22-1.18-.41-2.73-.26-4.07Zm-4.17,0h2.63c.26,1.13,.3,3,.09,4.2-1.05,.05-1.94,.02-2.73,0,.03-1.39,.02-2.99,0-4.21Zm1.95,7.53c.41,.2,.78,.49,.78,.92,0,.87-3.37,2.84-6.75,4.93-.4-.32-.72-.6-.94-.8-1.88-1.8-6.84-3.72-5.3-4.62h0l1.35,.02c3.33,0,4.94-.26,6.6-.4,1.18-.1,2.47-.04,4.26-.05Zm-3.37-7.53c0,1.34,.03,3.1,.06,4.22-.33,.02-.65,.05-.96,.12-1,.22-1.98,.55-3.32,.78-.16-1.44-.25-3.72-.28-5.14l4.49,.02Zm-6.87-.02h.93V7.5c-.48,.04-.98,.06-1.56,.06-.92,0-1.69-.06-2.38-.16,0-.07,0-.14,0-.23-.1-1.21-.13-3.55-.14-4.98,.77-.03,1.63-.05,3.14-.05Zm-8.2,.12h1.24c1.1,0,1.85,0,2.47-.02,.31,1.77,.25,3.97-.1,4.57-.05,.08-.06,.18-.05,.28-.92-.23-1.68-.49-2.46-.67l-.77-.16c-.22-1.12-.42-2.64-.32-3.99Zm-1.46-.02c.2,1.08,.23,2.65,.07,3.75-.92-.11-1.99-.19-3.32-.21,.02-1.24,0-2.57,0-3.61,1.51,0,2.24,.04,3.26,.07Zm-.6,7.28c.22,.45-.39,1.33-2.05,2.49-.86,.6-3.6,2.09-6.82,3.78l-.37-.32c-1.11-.98-2.4-1.65-3.43-2.34-.05-.05-.12-.11-.21-.18-1.21-.99-3.31-2.19-3.81-2.92,3.11-.01,4.38-.24,6-.38,1.66-.14,3.69-.19,7.02-.19,1.48,0,2.67,.02,3.67,.06Zm-4.08-7.35l.05,3.61c-1.42,0-2.6,.04-3.61,.1-.09-1.32-.14-2.83-.16-3.84,1.08,.05,1.87,.13,3.73,.14Zm-6.52-.2h1.35V6.03c-.52,.07-1,.15-1.45,.25-.83,.18-1.56,.43-2.51,.63-.09-1.33-.11-3.6-.12-4.9,.67-.02,1.47-.04,2.72-.04Zm-7.85,.13h.9c1.33,0,2.15-.02,2.86-.04,.35,1.8,.3,4.13-.07,4.75-.06,.1-.07,.23-.04,.35-.62,.07-1.33,.11-2.17,.11h-1.01c-.27-1.17-.68-3.38-.46-5.17Zm-5.71-.05h.98l3.17,.04c.36,1.47,.33,4.3-.15,5.15-1.6-.04-2.82-.14-3.88-.37l-.14-.04c.05-1.53,.04-3.42,.02-4.78Zm-1.42,0c0,1.39,.03,3.26,.07,4.41-1.14-.34-2.52-.73-4.23-.88-.07-1.2-.12-2.51-.14-3.45l4.3-.08Zm-2.29,7.44c.24,.18,.55,.39,.96,.63,1.54,.9-3.42,2.82-5.3,4.62-.2,.19-.48,.43-.84,.72-3.42-2.07-6.86-4.02-6.86-4.88,0-.29,.17-.51,.41-.69,.75-.1,1.38-.22,2.1-.28,1.66-.14,2.83-.27,6.15-.27,1.28,0,2.39,.06,3.37,.13Zm-3.6-7.35h.14v3.37c-1.51,0-2.57,.07-3.43,.19-.04-1.23-.06-2.7-.07-3.66,.83,.05,1.7,.1,3.36,.1Zm-8.55-.19c.44-.02,.96-.03,1.59-.03,.95,0,1.63,.02,2.2,.04,.27,1.3,.32,2.91,.19,3.95l-1.35,.3c-.76,.17-1.43,.48-2.25,.78-.27-1.26-.62-3.35-.38-5.03Zm-4.43,5.4c.07-1.54,.06-3.62,.04-5.12,1.28-.03,2-.1,2.79-.17,.39,1.53,.34,4.61-.21,5.3-.05,.07-.08,.13-.09,.18-.49,.07-1.04,.1-1.67,.1-.31,0-.6,0-.88-.02l.02-.27Zm-4.3-.62c-.13-1.45-.2-3.4-.23-4.64,.83,.06,1.64,.13,3.15,.14,.01,1.86,.04,4.46,.12,5.11l.03,.15c-1.29-.18-2.22-.49-3.07-.77Zm-7.02,9.66c4.01-2.05,7.91-3.87,8.61-4.24,.71-.38,1.92-.96,3.06-1.5,2.34,.99,7.22,3.97,9.95,5.67-2.46,1.86-6.42,4.54-9.14,5.95-3.51-1.2-8.1-3.1-12.48-5.89Zm26.15,6.16c-3.33,0-5.96,.12-7.63,.26l-2.12,.2c-.19-.09-.37-.2-.54-.3-.74-.46,3.71-3.42,7.07-5.55l.62,.39c3.77,2.43,7.22,4.21,7.75,5.19-1.25-.1-2.57-.19-5.17-.19Zm8.31-.38c-2.99-1.64-7.71-4.25-10.26-5.81l1.76-1.1c1.75-1.11,6.88-3.97,9.24-5.2,2.63,1.51,6.07,3.85,10.17,6.53-4.16,2.17-8.71,4.47-10.91,5.58Zm17.63,.41c-3.33,0-5.38,.07-7.04,.21-1.6,.14-2.84,.48-5.88,.51-.1-.06-.23-.13-.4-.2-1.44-.64,2.92-3.26,7.7-5.78,1.98,1.29,4.1,2.64,6.36,4,.23,.32,.54,.86,.46,1.27h-1.2Zm6.22-.04c-3.05-1.08-6.68-2.89-10.45-5.95,4.08-2.09,8.1-3.97,8.81-4.34,.63-.33,1.66-.83,2.68-1.32,2.58,1.4,6.18,3.43,7.59,4.32l1.89,1.19c-2.56,1.6-7.49,4.4-10.53,6.1Zm13.59,.31c-1.66,.14-3.18,.2-6.5,.2l-2.05-.02c-.63-.83,2.11-3.23,6.35-6.06,3.21,2.03,7.63,4.93,7.41,5.63-2.32,.03-3.85,.13-5.2,.24Zm9.21-.24c-2.77-1.31-7.41-4.45-10.06-6.47,2.23-1.33,7.52-4.42,10.08-5.46,2.56,1.04,7.85,4.13,10.08,5.46-2.65,2.02-7.29,5.16-10.06,6.47h-.04Zm17.88,.27l-.29,.03c-1.66,.14-3.52-.04-6.7,.11-3.62,.17-4.76-.05-6.43-.19h-.15l-.2-.13c-.76-.48,3.95-3.58,7.34-5.72,4,2.67,6.67,4.96,6.42,5.9Zm5.37-.37h-.44c-3.04-1.7-7.95-4.48-10.5-6.08l1.89-1.19c1.44-.91,5.16-3.01,7.75-4.41,1.08,.51,2.19,1.05,2.86,1.41,.72,.38,4.73,2.25,8.81,4.34-3.74,3.03-7.35,4.85-10.38,5.92Zm19.46,.57l-.06,.03c-1.33,.06-2.97,.08-5.16,.08-3.33,0-5.16-.11-6.83-.25l-2.43-.25c-.18-.41,.18-1.03,.42-1.38,2.25-1.36,4.37-2.71,6.36-4,4.79,2.52,9.14,5.14,7.7,5.78Zm-6.59-6.5c3.46-2.26,6.45-4.29,8.88-5.77,2.56,1.15,7.35,4.05,9.42,5.33-2.11,1.67-5.52,4.1-8.15,5.63-2.38-1.2-6.42-3.25-10.14-5.19Zm25.71,6.47l-.1,.12c-1.6-.12-2.85-.3-3.88-.39-1.66-.14-3.74-.15-7.06-.15-.84,0-1.55,.02-2.17,.04-.49-.58,3.92-3.59,7.11-5.68,4.1,2.84,6.75,5.25,6.11,6.07Zm13.97-6.57c-3.85,2.01-8.05,4.14-10.39,5.32-2.9-1.69-6.74-3.97-8.87-5.35l1.83-1.19c1.52-1,5.67-3.41,8.15-4.78,2.5,1.5,5.63,3.62,9.28,6.01Zm-4.75-9.7c-.35,.08-.76,.15-1.19,.22-.14-1.45-.22-3.53-.25-4.86,1.64-.03,2.32-.09,3.72-.13,0,1.3,.02,3.04,.06,4.21-.86,.18-1.57,.39-2.34,.56Z"/><path class="cls-1" d="M479.01,1.52V.31c-.55,.02-.52,0-1.42,0-3.48,0-3.48-.22-6.96-.22l-6.95-.04c-3.48,0-3.48,.25-6.95,.25h-1.09c-2.43-.07-2.79-.3-5.86-.3-1.91,0-2.78,.03-3.74,.06-.79,.02-1.65,.04-3.21,.04l-6.95-.03h-6.95c-3.48-.01-3.48,.23-6.95,.23l-6.95-.06c-3.48,0-3.48-.19-6.95-.19l-6.95-.04c-3.47,0-3.47,.14-6.95,.14s-3.48,.09-6.95,.09-3.48-.1-6.95-.1-3.48-.09-6.95-.09-3.48,.28-6.95,.28-3.48-.23-6.95-.23l-5.59-.03h-1.36c-3.48,0-3.48,.1-6.95,.1s-3.48,.09-6.95,.09-3.48-.08-6.95-.08l-6.95,.03c-2.36,0-3.22,.08-4.54,.08-.23-.02-.46,0-.7,0v1.83c.64,0,1.17,.1,1.8,.02,.23,1.26,.28,2.75,.15,3.74l-1.95-.02v3.64c3.33,0,5.22,.05,6.89,.2,.63,.05,1.23,.14,1.9,.22-.2,.49-.84,1.17-2.02,2-.85,.6-3.57,2.07-6.77,3.75v1.86c1.84,1.19,3.81,2.44,5.89,3.69,.33,.47,.85,1.41,.04,1.71-1.47-.16-2.93-.44-5.92-.44v2.54c3.33,0,4.75,.9,6.42,1.27,1.66,.37,3.56,.51,6.89,.51s4.67-.56,6.33-.93c1.66-.37,4.3-.68,7.63-.68s4.56,.37,6.23,.74c1.66,.37,4.36,.92,6.42,.8,2.39-.14,4.59-.55,6.26-.92,1.66-.37,3.72-.54,7.05-.54s5.31,.23,6.97,.59c1.66,.37,3.01,.66,6.33,.66s4.84-.16,6.5-.53c1.66-.37,3.58-.67,6.9-.67s5.11,.24,6.77,.61c1.66,.37,2.65,.45,6.43,.49,2.53,.03,5.04,.09,6.7-.28,1.66-.37,3.28-1.04,6.6-1.04s4.81,.77,6.47,1.14c1.66,.37,3.5,.65,6.83,.65s5.36-.13,7.02-.5c1.66-.37,2.96-.99,6.28-.99s5.4,.03,7.06,.4c1.66,.37,3.87,1.36,7.19,1.36s4.49-.33,6.15-.7c1.66-.37,2.87-1.43,6.19-1.43v-2.54c-3.33,0-4.53,.41-6.19,.55l-1.62,.13c-.09-.05-.21-.11-.36-.18-1.44-.63,2.92-3.26,7.7-5.78l.47,.3v-1.86l-.43-.29c-1.26-.88-2.4-1.65-3.43-2.34-.05-.05-.12-.11-.21-.18-1.25-1.03-2.44-2.28-2.13-3.01,1.6-.14,2.96-.34,6.19-.34v-3.64c-1.05,0-1.9,.06-2.63,.15,.03-1.37,.01-2.88,0-4.01h.52c.87,0,1.55,.06,2.12,.13v-.58c.06-.01,.14-.03,0-.04Zm-153.15,4.77c-.92-.18-1.94-.3-3.23-.36-.05-1.29-.07-2.9-.07-3.92,.4-.03,.85-.05,1.39-.05,.79,0,1.4,.02,1.92,.04V6.29ZM469.78,2.17V7.24c-1.35,.14-2.94,.23-4.73,.23h-.16c0-.09,0-.19,0-.3-.1-1.23-.13-3.63-.14-5.04l5.03,.03Zm-10.26-.07c.87,.01,1.73,.03,3.46,.03h.4c.34,1.79,.28,4.07-.08,4.68-.11,.18-.05,.41,.09,.62-1.51-.07-2.49-.24-3.41-.44-.26-1.15-.62-3.18-.46-4.89Zm-3.48-.03h1.97c.27,1.27,.28,3.32,0,4.45-.68-.2-1.39-.45-2.27-.65,.02-1.3,.01-2.72,0-3.8h.29Zm2.78,7.76c1.2,.1,2.19,.21,3.9,.25l.07,.05c1.48,.9-3.3,2.82-5.11,4.62-.21,.21-.52,.48-.91,.8-3.26-2.09-6.51-4.06-6.51-4.93,0-.98,1.81-1.26,1.81-1.26h.32c3.32,0,4.75,.32,6.42,.46Zm-9.73-7.55c2.78,0,3.34-.14,5.23-.19l.04,3.54c-.58-.07-1.22-.11-1.97-.11-1.44,0-2.49,.18-3.36,.41-.08-1.23-.14-2.64-.16-3.65h.21Zm-3.78-.06l2.12,.06V6.46c-.43,.15-.85,.29-1.29,.39-.77,.17-1.63,.3-2.65,.38v-.06c-.1-1.22-.13-3.57-.14-4.99l1.95,.04Zm-7.09,0c1.02-.02,1.86-.05,3.79-.05,.33,1.78,.27,4.03-.09,4.64-.09,.15-.06,.34,.03,.52-.84,.04-1.77,.06-2.85,.06h-.38c-.26-1.11-.69-3.33-.5-5.17Zm-5.7-.01c.66,.02,1.45,.04,2.67,.04h1.51c.33,1.56,.27,4.38-.24,5.08-1.64-.08-2.88-.24-3.96-.46,.05-1.48,.04-3.31,.02-4.66Zm6.58,7.88c2.07,0,3.65-.02,4.95-.08-.46,.73-2.6,1.95-3.83,2.95-.09,.07-.16,.13-.21,.18-1.03,.68-2.32,1.35-3.43,2.34l-.38,.32c-3.22-1.69-5.97-3.18-6.82-3.78-1.55-1.09-2.19-1.93-2.08-2.4,2.27,.03,3.44,.13,4.82,.24,1.66,.14,3.65,.23,6.97,.23Zm-10.86-7.99c1.34,0,2.16,.02,2.87,.05,0,1.43,.03,3.33,.07,4.44-1.1-.22-2.26-.39-4.19-.44-.1-1.36-.16-2.98-.18-4.07h1.43Zm-2.88-.05V6.14c-1.42,0-2.51,.05-3.41,.12-.06-1.38-.08-3.26-.09-4.35,1.71,.01,2.49,.07,3.5,.13Zm-8.71,.13c1.27-.08,1.99-.22,3.81-.25,.33,1.55,.34,3.56,.1,4.51-.43,.07-.85,.15-1.27,.24-.67,.15-1.39,.29-2.23,.4-.26-1.19-.61-3.21-.42-4.89Zm-3.22,12.59c-.22,.21-.54,.48-.94,.8-3.39-2.09-6.75-4.06-6.75-4.93,0-.32,.21-.57,.48-.75,1.51,.11,3.24,.19,6.18,.19,2.7,0,4.47-.07,5.93-.18l.4,.25c1.54,.9-3.42,2.82-5.3,4.62Zm-1.14-12.52h2.83c.33,1.51,.28,4.24-.19,5.03-.75,.04-1.58,.07-2.53,.07h-.15c.07-1.54,.06-3.6,.04-5.1Zm-1.42,0c.01,1.83,.04,4.39,.12,5.09-1.19-.03-2.16-.1-3.01-.19-.14-1.43-.23-3.55-.26-4.91h3.15Zm-4.6,0V6.86l-.64-.13c-.86-.19-1.58-.43-2.58-.56-.05-1.26-.07-2.9-.08-3.99l3.31,.03Zm-7.29-.04h2.63c.25,1.34,.28,2.94,.12,3.91-.68,0-1.49,.04-2.5,.16-.22-1.18-.41-2.73-.26-4.07Zm-4.17,0h2.63c.26,1.13,.3,3,.09,4.2-1.05,.05-1.94,.02-2.73,0,.03-1.39,.02-2.99,0-4.21Zm1.95,7.53c.41,.2,.78,.49,.78,.92,0,.87-3.37,2.84-6.75,4.93-.4-.32-.72-.6-.94-.8-1.88-1.8-6.84-3.72-5.3-4.62l1.35,.02c3.33,0,4.94-.26,6.6-.4,1.18-.1,2.47-.04,4.26-.05Zm-3.37-7.53c0,1.34,.03,3.1,.06,4.22-.33,.02-.65,.05-.96,.12-1,.22-1.98,.55-3.32,.78-.16-1.44-.25-3.72-.28-5.14l4.49,.02Zm-6.87-.02h.93V7.5c-.48,.04-.98,.06-1.56,.06-.92,0-1.69-.06-2.38-.16,0-.07,0-.14,0-.23-.1-1.21-.13-3.55-.14-4.98,.77-.03,1.63-.05,3.14-.05Zm-8.2,.12h1.24c1.1,0,1.85,0,2.47-.02,.31,1.77,.25,3.97-.1,4.57-.05,.08-.06,.18-.05,.28-.92-.23-1.68-.49-2.46-.67l-.77-.16c-.22-1.12-.42-2.64-.32-3.99Zm-1.46-.02c.2,1.08,.23,2.65,.07,3.75-.92-.11-1.99-.19-3.32-.21,.02-1.24,0-2.57,0-3.61,1.51,0,2.24,.04,3.26,.07Zm-.6,7.28c.22,.45-.39,1.33-2.05,2.49-.86,.6-3.6,2.09-6.82,3.78l-.37-.32c-1.11-.98-2.4-1.65-3.43-2.34-.05-.05-.12-.11-.21-.18-1.21-.99-3.31-2.19-3.81-2.92,3.11-.01,4.38-.24,6-.38,1.66-.14,3.69-.19,7.02-.19,1.48,0,2.67,.02,3.67,.06Zm-4.08-7.35l.05,3.61c-1.42,0-2.6,.04-3.61,.1-.09-1.32-.14-2.83-.16-3.84,1.08,.05,1.87,.13,3.73,.14Zm-6.52-.2h1.35V6.03c-.52,.07-1,.15-1.45,.25-.83,.18-1.57,.43-2.51,.63-.09-1.33-.11-3.6-.12-4.9,.67-.02,1.47-.04,2.72-.04Zm-7.85,.13h.9c1.33,0,2.15-.02,2.86-.04,.35,1.8,.3,4.13-.07,4.75-.06,.1-.07,.23-.03,.35-.62,.07-1.33,.11-2.17,.11h-1.01c-.27-1.17-.68-3.38-.46-5.17Zm-5.71-.05h.98l3.17,.04c.36,1.47,.33,4.3-.15,5.15-1.6-.04-2.82-.14-3.88-.37l-.14-.04c.05-1.53,.04-3.42,.02-4.78Zm-1.42,0c0,1.39,.03,3.26,.07,4.41-1.14-.34-2.52-.73-4.23-.88-.07-1.2-.12-2.51-.14-3.45l4.3-.08Zm-2.29,7.44c.24,.18,.55,.39,.96,.63,1.54,.9-3.42,2.82-5.3,4.62-.2,.19-.49,.43-.84,.72-3.42-2.07-6.86-4.02-6.86-4.88,0-.29,.17-.51,.41-.69,.75-.1,1.38-.22,2.1-.28,1.66-.14,2.83-.27,6.15-.27,1.28,0,2.39,.06,3.37,.13Zm-3.6-7.35h.14v3.37c-1.51,0-2.57,.07-3.43,.19-.04-1.23-.06-2.7-.06-3.66,.83,.05,1.7,.1,3.36,.1Zm-8.55-.19c.44-.02,.96-.03,1.59-.03,.95,0,1.63,.02,2.2,.04,.27,1.3,.32,2.91,.19,3.95l-1.36,.3c-.76,.17-1.43,.48-2.25,.78-.27-1.26-.62-3.35-.38-5.03Zm-4.43,5.4c.07-1.54,.06-3.62,.04-5.12,1.28-.03,2-.1,2.79-.17,.39,1.53,.34,4.61-.21,5.3-.05,.07-.08,.13-.09,.18-.49,.07-1.04,.1-1.67,.1-.31,0-.6,0-.88-.02l.02-.27Zm-4.3-.62c-.13-1.45-.2-3.4-.22-4.64,.83,.06,1.64,.13,3.15,.14,.01,1.86,.04,4.46,.12,5.11l.03,.15c-1.29-.18-2.22-.49-3.07-.77Zm-7.02,9.66c4.01-2.05,7.91-3.87,8.61-4.24,.71-.38,1.92-.96,3.06-1.5,2.34,.99,7.22,3.97,9.95,5.67-2.46,1.86-6.42,4.54-9.14,5.95-3.51-1.2-8.1-3.1-12.48-5.89Zm26.15,6.16c-3.33,0-5.96,.12-7.63,.26l-2.12,.2c-.19-.09-.37-.2-.54-.3-.74-.46,3.71-3.42,7.07-5.55l.62,.39c3.77,2.43,7.22,4.21,7.75,5.19-1.25-.1-2.57-.19-5.17-.19Zm8.31-.38c-3-1.64-7.71-4.25-10.26-5.81l1.76-1.1c1.75-1.11,6.88-3.97,9.24-5.2,2.63,1.51,6.07,3.85,10.17,6.53-4.16,2.17-8.71,4.47-10.91,5.58Zm17.63,.41c-3.33,0-5.38,.07-7.05,.21-1.6,.14-2.84,.48-5.88,.51-.1-.06-.23-.13-.39-.2-1.44-.64,2.92-3.26,7.7-5.78,1.98,1.29,4.1,2.64,6.36,4,.23,.32,.54,.86,.46,1.27h-1.2Zm6.22-.04c-3.05-1.08-6.68-2.89-10.45-5.95,4.08-2.09,8.1-3.97,8.81-4.34,.63-.33,1.66-.83,2.68-1.32,2.58,1.4,6.18,3.43,7.59,4.32l1.89,1.19c-2.56,1.6-7.49,4.4-10.53,6.1Zm13.59,.31c-1.66,.14-3.18,.2-6.5,.2l-2.05-.02c-.63-.83,2.11-3.23,6.35-6.06,3.21,2.03,7.63,4.93,7.41,5.63-2.32,.03-3.85,.13-5.2,.24Zm9.21-.24c-2.77-1.31-7.41-4.45-10.06-6.47,2.23-1.33,7.53-4.42,10.08-5.46,2.56,1.04,7.85,4.13,10.08,5.46-2.65,2.02-7.29,5.16-10.06,6.47h-.04Zm17.88,.27l-.29,.03c-1.66,.14-3.52-.04-6.7,.11-3.62,.17-4.76-.05-6.43-.19h-.15l-.19-.13c-.76-.48,3.95-3.58,7.34-5.72,4,2.67,6.67,4.96,6.42,5.9Zm5.37-.37h-.44c-3.04-1.7-7.95-4.48-10.5-6.08l1.89-1.19c1.44-.91,5.16-3.01,7.75-4.41,1.08,.51,2.19,1.05,2.86,1.41,.72,.38,4.73,2.25,8.81,4.34-3.74,3.03-7.35,4.85-10.38,5.92Zm19.46,.57l-.06,.03c-1.33,.06-2.97,.08-5.16,.08-3.33,0-5.16-.11-6.83-.25l-2.43-.25c-.18-.41,.18-1.03,.42-1.38,2.25-1.36,4.37-2.71,6.36-4,4.79,2.52,9.14,5.14,7.7,5.78Zm-6.59-6.5c3.46-2.26,6.45-4.29,8.88-5.77,2.56,1.15,7.35,4.05,9.42,5.33-2.11,1.67-5.52,4.1-8.15,5.63-2.38-1.2-6.42-3.25-10.14-5.19Zm25.71,6.47l-.1,.12c-1.6-.12-2.84-.3-3.88-.39-1.66-.14-3.74-.15-7.06-.15-.84,0-1.55,.02-2.17,.04-.49-.58,3.92-3.59,7.11-5.68,4.1,2.84,6.75,5.25,6.11,6.07Zm13.97-6.57c-3.86,2.01-8.05,4.14-10.39,5.32-2.9-1.69-6.74-3.97-8.87-5.35l1.83-1.19c1.52-1,5.67-3.41,8.15-4.78,2.5,1.5,5.63,3.62,9.28,6.01Zm-4.75-9.7c-.35,.08-.76,.15-1.19,.22-.14-1.45-.22-3.53-.25-4.86,1.64-.03,2.32-.09,3.72-.13,0,1.3,.02,3.04,.06,4.21-.86,.18-1.57,.39-2.34,.56Z"/><path class="cls-1" d="M638.7,1.52V.31c-.55,.02-.52,0-1.42,0-3.48,0-3.48-.22-6.96-.22l-6.95-.04c-3.48,0-3.48,.25-6.95,.25h-1.1c-2.43-.07-2.79-.3-5.86-.3-1.91,0-2.78,.03-3.74,.06-.79,.02-1.65,.04-3.21,.04l-6.95-.03h-6.95c-3.48-.01-3.48,.23-6.95,.23l-6.95-.06c-3.48,0-3.48-.19-6.95-.19l-6.95-.04c-3.47,0-3.47,.14-6.95,.14s-3.48,.09-6.95,.09-3.48-.1-6.95-.1-3.48-.09-6.95-.09-3.48,.28-6.95,.28-3.48-.23-6.95-.23l-5.59-.03h-1.36c-3.48,0-3.48,.1-6.95,.1s-3.48,.09-6.95,.09-3.48-.08-6.95-.08l-6.95,.03c-2.36,0-3.22,.08-4.54,.08-.23-.02-.46,0-.7,0v1.83c.64,0,1.17,.1,1.8,.02,.23,1.26,.28,2.75,.15,3.74l-1.95-.02v3.64c3.33,0,5.22,.05,6.89,.2,.63,.05,1.23,.14,1.9,.22-.2,.49-.84,1.17-2.02,2-.85,.6-3.57,2.07-6.77,3.75v1.86c1.84,1.19,3.81,2.44,5.89,3.69,.33,.47,.85,1.41,.04,1.71-1.47-.16-2.93-.44-5.92-.44v2.54c3.33,0,4.75,.9,6.42,1.27,1.66,.37,3.56,.51,6.89,.51s4.67-.56,6.33-.93c1.66-.37,4.3-.68,7.63-.68s4.56,.37,6.23,.74c1.66,.37,4.36,.92,6.42,.8,2.39-.14,4.59-.55,6.26-.92,1.66-.37,3.72-.54,7.05-.54s5.31,.23,6.97,.59c1.66,.37,3.01,.66,6.33,.66s4.84-.16,6.5-.53c1.66-.37,3.58-.67,6.9-.67s5.11,.24,6.77,.61c1.66,.37,2.65,.45,6.43,.49,2.53,.03,5.04,.09,6.7-.28,1.66-.37,3.28-1.04,6.6-1.04s4.81,.77,6.47,1.14c1.66,.37,3.5,.65,6.83,.65s5.36-.13,7.02-.5c1.66-.37,2.96-.99,6.28-.99s5.4,.03,7.06,.4c1.66,.37,3.87,1.36,7.19,1.36s4.49-.33,6.15-.7c1.66-.37,2.87-1.43,6.19-1.43v-2.54c-3.32,0-4.53,.41-6.19,.55l-1.63,.13c-.09-.05-.21-.11-.36-.18-1.44-.63,2.92-3.26,7.7-5.78l.47,.3v-1.86l-.43-.29c-1.26-.88-2.4-1.65-3.43-2.34-.05-.05-.12-.11-.21-.18-1.25-1.03-2.44-2.28-2.13-3.01,1.6-.14,2.96-.34,6.19-.34v-3.64c-1.05,0-1.9,.06-2.63,.15,.03-1.37,.01-2.88,0-4.01h.52c.87,0,1.55,.06,2.12,.13v-.58c.06-.01,.14-.03,0-.04Zm-153.15,4.77c-.92-.18-1.94-.3-3.23-.36-.05-1.29-.07-2.9-.07-3.92,.4-.03,.85-.05,1.39-.05,.79,0,1.4,.02,1.92,.04V6.29Zm143.93-4.13V7.24c-1.35,.14-2.94,.23-4.73,.23h-.16c0-.09,0-.19,0-.3-.1-1.23-.13-3.63-.14-5.04l5.03,.03Zm-10.26-.07c.87,.01,1.73,.03,3.46,.03h.4c.34,1.79,.28,4.07-.08,4.68-.11,.18-.05,.41,.09,.62-1.51-.07-2.49-.24-3.41-.44-.26-1.15-.62-3.18-.46-4.89Zm-3.48-.03h1.97c.27,1.27,.28,3.32,0,4.45-.68-.2-1.39-.45-2.27-.65,.02-1.3,0-2.72,0-3.8h.29Zm2.78,7.76c1.2,.1,2.19,.21,3.9,.25l.07,.05c1.48,.9-3.3,2.82-5.11,4.62-.21,.21-.52,.48-.91,.8-3.26-2.09-6.51-4.06-6.51-4.93,0-.98,1.81-1.26,1.81-1.26h.32c3.32,0,4.75,.32,6.42,.46Zm-9.73-7.55c2.78,0,3.34-.14,5.23-.19l.04,3.54c-.58-.07-1.22-.11-1.97-.11-1.44,0-2.49,.18-3.36,.41-.08-1.23-.14-2.64-.16-3.65h.21Zm-3.78-.06l2.12,.06V6.46c-.43,.15-.85,.29-1.29,.39-.77,.17-1.63,.3-2.65,.38v-.06c-.1-1.22-.13-3.57-.14-4.99l1.95,.04Zm-7.09,0c1.02-.02,1.86-.05,3.79-.05,.33,1.78,.27,4.03-.09,4.64-.09,.15-.06,.34,.03,.52-.84,.04-1.77,.06-2.85,.06h-.38c-.26-1.11-.69-3.33-.5-5.17Zm-5.7-.01c.66,.02,1.45,.04,2.67,.04h1.51c.33,1.56,.27,4.38-.24,5.08-1.64-.08-2.88-.24-3.96-.46,.05-1.48,.04-3.31,.02-4.66Zm6.57,7.88c2.07,0,3.65-.02,4.95-.08-.46,.73-2.6,1.95-3.83,2.95-.09,.07-.16,.13-.21,.18-1.03,.68-2.32,1.35-3.43,2.34l-.38,.32c-3.22-1.69-5.97-3.18-6.82-3.78-1.55-1.09-2.19-1.93-2.08-2.4,2.27,.03,3.44,.13,4.82,.24,1.66,.14,3.65,.23,6.97,.23Zm-10.86-7.99c1.34,0,2.16,.02,2.87,.05,0,1.43,.03,3.33,.07,4.44-1.1-.22-2.26-.39-4.19-.44-.1-1.36-.16-2.98-.18-4.07h1.43Zm-2.88-.05V6.14c-1.42,0-2.51,.05-3.41,.12-.06-1.38-.08-3.26-.09-4.35,1.71,.01,2.49,.07,3.5,.13Zm-8.71,.13c1.27-.08,1.99-.22,3.81-.25,.33,1.55,.34,3.56,.1,4.51-.43,.07-.85,.15-1.27,.24-.67,.15-1.39,.29-2.23,.4-.26-1.19-.61-3.21-.42-4.89Zm-3.22,12.59c-.22,.21-.54,.48-.94,.8-3.39-2.09-6.75-4.06-6.75-4.93,0-.32,.21-.57,.48-.75,1.51,.11,3.24,.19,6.18,.19,2.7,0,4.47-.07,5.93-.18l.4,.25c1.54,.9-3.42,2.82-5.3,4.62Zm-1.14-12.52h2.83c.33,1.51,.28,4.24-.19,5.03-.75,.04-1.58,.07-2.53,.07h-.15c.07-1.54,.06-3.6,.04-5.1Zm-1.42,0c.01,1.83,.04,4.39,.12,5.09-1.2-.03-2.16-.1-3.01-.19-.14-1.43-.23-3.55-.26-4.91h3.15Zm-4.6,0V6.86l-.64-.13c-.86-.19-1.58-.43-2.58-.56-.05-1.26-.07-2.9-.08-3.99l3.31,.03Zm-7.29-.04h2.63c.25,1.34,.28,2.94,.12,3.91-.68,0-1.49,.04-2.5,.16-.22-1.18-.41-2.73-.26-4.07Zm-4.17,0h2.63c.26,1.13,.3,3,.09,4.2-1.05,.05-1.94,.02-2.73,0,.03-1.39,.02-2.99,0-4.21Zm1.95,7.53c.41,.2,.78,.49,.78,.92,0,.87-3.37,2.84-6.75,4.93-.4-.32-.72-.6-.94-.8-1.88-1.8-6.84-3.72-5.3-4.62h0l1.35,.02c3.33,0,4.94-.26,6.6-.4,1.19-.1,2.47-.04,4.26-.05Zm-3.37-7.53c0,1.34,.02,3.1,.06,4.22-.33,.02-.65,.05-.96,.12-.99,.22-1.98,.55-3.32,.78-.16-1.44-.25-3.72-.28-5.14l4.49,.02Zm-6.87-.02h.93V7.5c-.48,.04-.98,.06-1.56,.06-.92,0-1.69-.06-2.38-.16,0-.07,0-.14,0-.23-.1-1.21-.13-3.55-.14-4.98,.77-.03,1.63-.05,3.14-.05Zm-8.19,.12h1.24c1.1,0,1.85,0,2.47-.02,.31,1.77,.25,3.97-.1,4.57-.05,.08-.06,.18-.05,.28-.92-.23-1.68-.49-2.46-.67l-.77-.16c-.22-1.12-.42-2.64-.32-3.99Zm-1.46-.02c.2,1.08,.23,2.65,.07,3.75-.92-.11-1.99-.19-3.32-.21,.02-1.24,0-2.57,0-3.61,1.51,0,2.24,.04,3.26,.07Zm-.6,7.28c.22,.45-.39,1.33-2.05,2.49-.86,.6-3.6,2.09-6.82,3.78l-.37-.32c-1.11-.98-2.4-1.65-3.43-2.34-.05-.05-.12-.11-.21-.18-1.21-.99-3.31-2.19-3.81-2.92,3.11-.01,4.38-.24,6-.38,1.66-.14,3.69-.19,7.02-.19,1.48,0,2.67,.02,3.67,.06Zm-4.08-7.35l.05,3.61c-1.42,0-2.6,.04-3.61,.1-.09-1.32-.14-2.83-.16-3.84,1.08,.05,1.87,.13,3.73,.14Zm-6.52-.2h1.35V6.03c-.52,.07-1,.15-1.45,.25-.83,.18-1.57,.43-2.51,.63-.09-1.33-.11-3.6-.12-4.9,.67-.02,1.47-.04,2.72-.04Zm-7.85,.13h.9c1.33,0,2.15-.02,2.86-.04,.35,1.8,.3,4.13-.07,4.75-.06,.1-.07,.23-.03,.35-.62,.07-1.33,.11-2.17,.11h-1.01c-.27-1.17-.68-3.38-.46-5.17Zm-5.71-.05h.98l3.17,.04c.36,1.47,.33,4.3-.15,5.15-1.6-.04-2.82-.14-3.88-.37l-.14-.04c.05-1.53,.04-3.42,.02-4.78Zm-1.42,0c0,1.39,.03,3.26,.07,4.41-1.14-.34-2.52-.73-4.23-.88-.07-1.2-.12-2.51-.14-3.45l4.3-.08Zm-2.29,7.44c.24,.18,.55,.39,.96,.63,1.54,.9-3.42,2.82-5.3,4.62-.2,.19-.49,.43-.84,.72-3.42-2.07-6.86-4.02-6.86-4.88,0-.29,.17-.51,.41-.69,.75-.1,1.38-.22,2.1-.28,1.66-.14,2.83-.27,6.15-.27,1.28,0,2.39,.06,3.37,.13Zm-3.6-7.35h.14v3.37c-1.51,0-2.57,.07-3.43,.19-.04-1.23-.06-2.7-.06-3.66,.83,.05,1.7,.1,3.36,.1Zm-8.55-.19c.44-.02,.96-.03,1.59-.03,.95,0,1.63,.02,2.2,.04,.27,1.3,.32,2.91,.19,3.95l-1.36,.3c-.76,.17-1.43,.48-2.25,.78-.27-1.26-.62-3.35-.38-5.03Zm-4.43,5.4c.07-1.54,.06-3.62,.04-5.12,1.28-.03,2-.1,2.79-.17,.39,1.53,.34,4.61-.21,5.3-.05,.07-.08,.13-.09,.18-.49,.07-1.04,.1-1.67,.1-.31,0-.6,0-.88-.02l.02-.27Zm-4.3-.62c-.13-1.45-.2-3.4-.22-4.64,.83,.06,1.64,.13,3.15,.14,.01,1.86,.04,4.46,.12,5.11l.03,.15c-1.29-.18-2.22-.49-3.07-.77Zm-7.02,9.66c4.01-2.05,7.91-3.87,8.61-4.24,.71-.38,1.92-.96,3.06-1.5,2.34,.99,7.22,3.97,9.95,5.67-2.46,1.86-6.42,4.54-9.14,5.95-3.51-1.2-8.1-3.1-12.48-5.89Zm26.15,6.16c-3.33,0-5.96,.12-7.63,.26l-2.12,.2c-.19-.09-.37-.2-.54-.3-.74-.46,3.71-3.42,7.07-5.55l.62,.39c3.77,2.43,7.22,4.21,7.75,5.19-1.25-.1-2.57-.19-5.17-.19Zm8.31-.38c-3-1.64-7.71-4.25-10.26-5.81l1.76-1.1c1.75-1.11,6.88-3.97,9.24-5.2,2.63,1.51,6.07,3.85,10.17,6.53-4.16,2.17-8.71,4.47-10.91,5.58Zm17.63,.41c-3.33,0-5.38,.07-7.05,.21-1.6,.14-2.84,.48-5.88,.51-.1-.06-.23-.13-.39-.2-1.44-.64,2.92-3.26,7.7-5.78,1.98,1.29,4.1,2.64,6.36,4,.23,.32,.54,.86,.46,1.27h-1.2Zm6.22-.04c-3.05-1.08-6.68-2.89-10.45-5.95,4.08-2.09,8.1-3.97,8.81-4.34,.63-.33,1.66-.83,2.68-1.32,2.58,1.4,6.19,3.43,7.59,4.32l1.89,1.19c-2.56,1.6-7.49,4.4-10.53,6.1Zm13.59,.31c-1.66,.14-3.18,.2-6.5,.2l-2.05-.02c-.63-.83,2.11-3.23,6.35-6.06,3.21,2.03,7.63,4.93,7.41,5.63-2.32,.03-3.84,.13-5.2,.24Zm9.21-.24c-2.77-1.31-7.41-4.45-10.06-6.47,2.23-1.33,7.53-4.42,10.08-5.46,2.56,1.04,7.85,4.13,10.08,5.46-2.65,2.02-7.29,5.16-10.06,6.47h-.04Zm17.88,.27l-.29,.03c-1.66,.14-3.52-.04-6.7,.11-3.62,.17-4.76-.05-6.43-.19h-.15l-.2-.13c-.76-.48,3.95-3.58,7.34-5.72,4,2.67,6.67,4.96,6.42,5.9Zm5.37-.37h-.44c-3.04-1.7-7.95-4.48-10.5-6.08l1.89-1.19c1.44-.91,5.16-3.01,7.75-4.41,1.08,.51,2.19,1.05,2.86,1.41,.72,.38,4.73,2.25,8.81,4.34-3.74,3.03-7.35,4.85-10.38,5.92Zm19.46,.57l-.06,.03c-1.33,.06-2.97,.08-5.16,.08-3.33,0-5.16-.11-6.83-.25l-2.43-.25c-.18-.41,.18-1.03,.43-1.38,2.25-1.36,4.37-2.71,6.36-4,4.79,2.52,9.14,5.14,7.7,5.78Zm-6.59-6.5c3.46-2.26,6.45-4.29,8.88-5.77,2.56,1.15,7.35,4.05,9.42,5.33-2.11,1.67-5.52,4.1-8.15,5.63-2.38-1.2-6.42-3.25-10.14-5.19Zm25.71,6.47l-.1,.12c-1.6-.12-2.85-.3-3.88-.39-1.66-.14-3.74-.15-7.06-.15-.84,0-1.55,.02-2.17,.04-.49-.58,3.92-3.59,7.11-5.68,4.1,2.84,6.75,5.25,6.11,6.07Zm13.97-6.57c-3.85,2.01-8.05,4.14-10.39,5.32-2.9-1.69-6.74-3.97-8.87-5.35l1.83-1.19c1.52-1,5.67-3.41,8.15-4.78,2.5,1.5,5.63,3.62,9.28,6.01Zm-4.75-9.7c-.35,.08-.76,.15-1.19,.22-.14-1.45-.22-3.53-.25-4.86,1.64-.03,2.32-.09,3.72-.13,0,1.3,.02,3.04,.06,4.21-.86,.18-1.57,.39-2.34,.56Z"/><path class="cls-1" d="M798.4,1.52V.31c-.55,.02-.52,0-1.42,0-3.48,0-3.48-.22-6.96-.22l-6.95-.04c-3.48,0-3.48,.25-6.95,.25h-1.09c-2.43-.07-2.79-.3-5.86-.3-1.91,0-2.78,.03-3.75,.06-.79,.02-1.65,.04-3.21,.04l-6.95-.03h-6.95c-3.48-.01-3.48,.23-6.95,.23l-6.95-.06c-3.48,0-3.48-.19-6.95-.19l-6.95-.04c-3.47,0-3.47,.14-6.95,.14s-3.48,.09-6.95,.09-3.48-.1-6.95-.1-3.48-.09-6.95-.09-3.48,.28-6.95,.28-3.48-.23-6.95-.23l-5.59-.03h-1.36c-3.48,0-3.48,.1-6.95,.1s-3.48,.09-6.95,.09-3.48-.08-6.95-.08l-6.95,.03c-2.36,0-3.22,.08-4.54,.08-.23-.02-.46,0-.7,0v1.83c.64,0,1.17,.1,1.8,.02,.23,1.26,.28,2.75,.15,3.74l-1.95-.02v3.64c3.32,0,5.22,.05,6.88,.2,.63,.05,1.23,.14,1.9,.22-.2,.49-.84,1.17-2.02,2-.85,.6-3.57,2.07-6.77,3.75v1.86c1.84,1.19,3.81,2.44,5.89,3.69,.33,.47,.85,1.41,.04,1.71-1.47-.16-2.93-.44-5.92-.44v2.54c3.32,0,4.75,.9,6.42,1.27,1.66,.37,3.56,.51,6.88,.51s4.67-.56,6.33-.93c1.66-.37,4.3-.68,7.63-.68s4.56,.37,6.23,.74c1.66,.37,4.36,.92,6.42,.8,2.39-.14,4.59-.55,6.26-.92,1.66-.37,3.72-.54,7.04-.54s5.31,.23,6.97,.59c1.66,.37,3.01,.66,6.33,.66s4.84-.16,6.5-.53c1.66-.37,3.58-.67,6.9-.67s5.11,.24,6.77,.61c1.66,.37,2.65,.45,6.43,.49,2.53,.03,5.04,.09,6.7-.28,1.66-.37,3.28-1.04,6.6-1.04s4.81,.77,6.47,1.14c1.66,.37,3.5,.65,6.83,.65s5.36-.13,7.02-.5c1.66-.37,2.96-.99,6.28-.99s5.4,.03,7.06,.4c1.66,.37,3.87,1.36,7.19,1.36s4.49-.33,6.15-.7c1.66-.37,2.87-1.43,6.19-1.43v-2.54c-3.33,0-4.53,.41-6.19,.55l-1.62,.13c-.09-.05-.21-.11-.36-.18-1.44-.63,2.92-3.26,7.7-5.78l.47,.3v-1.86l-.43-.29c-1.26-.88-2.4-1.65-3.43-2.34-.05-.05-.12-.11-.21-.18-1.25-1.03-2.44-2.28-2.13-3.01,1.6-.14,2.96-.34,6.19-.34v-3.64c-1.05,0-1.9,.06-2.63,.15,.02-1.37,.01-2.88,0-4.01h.52c.87,0,1.55,.06,2.12,.13v-.58c.06-.01,.14-.03,0-.04Zm-153.15,4.77c-.92-.18-1.94-.3-3.23-.36-.05-1.29-.07-2.9-.07-3.92,.4-.03,.85-.05,1.39-.05,.79,0,1.4,.02,1.92,.04V6.29Zm143.93-4.13V7.24c-1.35,.14-2.94,.23-4.73,.23h-.16c0-.09,0-.19,0-.3-.1-1.23-.13-3.63-.14-5.04l5.03,.03Zm-10.26-.07c.87,.01,1.73,.03,3.46,.03h.4c.34,1.79,.28,4.07-.08,4.68-.11,.18-.05,.41,.09,.62-1.51-.07-2.49-.24-3.41-.44-.26-1.15-.62-3.18-.46-4.89Zm-3.48-.03h1.97c.27,1.27,.28,3.32,0,4.45-.68-.2-1.39-.45-2.27-.65,.02-1.3,.01-2.72,0-3.8h.29Zm2.78,7.76c1.2,.1,2.19,.21,3.9,.25l.07,.05c1.48,.9-3.3,2.82-5.11,4.62-.21,.21-.52,.48-.91,.8-3.26-2.09-6.51-4.06-6.51-4.93,0-.98,1.81-1.26,1.81-1.26h.32c3.32,0,4.75,.32,6.42,.46Zm-9.73-7.55c2.78,0,3.34-.14,5.23-.19l.04,3.54c-.58-.07-1.22-.11-1.97-.11-1.44,0-2.49,.18-3.36,.41-.08-1.23-.14-2.64-.16-3.65h.21Zm-3.78-.06l2.12,.06V6.46c-.43,.15-.85,.29-1.29,.39-.77,.17-1.63,.3-2.65,.38v-.06c-.1-1.22-.13-3.57-.14-4.99l1.95,.04Zm-7.09,0c1.02-.02,1.86-.05,3.79-.05,.33,1.78,.27,4.03-.09,4.64-.09,.15-.06,.34,.03,.52-.84,.04-1.77,.06-2.85,.06h-.38c-.26-1.11-.69-3.33-.5-5.17Zm-5.7-.01c.66,.02,1.45,.04,2.67,.04h1.51c.33,1.56,.27,4.38-.24,5.08-1.64-.08-2.88-.24-3.96-.46,.05-1.48,.04-3.31,.02-4.66Zm6.58,7.88c2.07,0,3.65-.02,4.95-.08-.46,.73-2.6,1.95-3.83,2.95-.09,.07-.16,.13-.21,.18-1.03,.68-2.32,1.35-3.43,2.34l-.38,.32c-3.22-1.69-5.97-3.18-6.82-3.78-1.55-1.09-2.19-1.93-2.08-2.4,2.27,.03,3.44,.13,4.82,.24,1.66,.14,3.64,.23,6.97,.23Zm-10.86-7.99c1.34,0,2.16,.02,2.87,.05,0,1.43,.03,3.33,.07,4.44-1.1-.22-2.26-.39-4.19-.44-.1-1.36-.16-2.98-.18-4.07h1.43Zm-2.88-.05V6.14c-1.42,0-2.51,.05-3.41,.12-.06-1.38-.08-3.26-.09-4.35,1.71,.01,2.49,.07,3.5,.13Zm-8.71,.13c1.27-.08,1.99-.22,3.81-.25,.33,1.55,.34,3.56,.1,4.51-.43,.07-.85,.15-1.27,.24-.67,.15-1.39,.29-2.23,.4-.26-1.19-.61-3.21-.42-4.89Zm-3.22,12.59c-.22,.21-.54,.48-.94,.8-3.39-2.09-6.75-4.06-6.75-4.93,0-.32,.21-.57,.48-.75,1.51,.11,3.24,.19,6.18,.19,2.7,0,4.47-.07,5.93-.18l.4,.25c1.54,.9-3.42,2.82-5.3,4.62Zm-1.14-12.52h2.83c.33,1.51,.28,4.24-.19,5.03-.75,.04-1.58,.07-2.53,.07h-.15c.07-1.54,.06-3.6,.04-5.1Zm-1.42,0c.01,1.83,.04,4.39,.12,5.09-1.19-.03-2.16-.1-3-.19-.14-1.43-.23-3.55-.26-4.91h3.15Zm-4.6,0V6.86l-.64-.13c-.86-.19-1.58-.43-2.58-.56-.05-1.26-.07-2.9-.08-3.99l3.31,.03Zm-7.29-.04h2.63c.25,1.34,.28,2.94,.12,3.91-.68,0-1.49,.04-2.5,.16-.22-1.18-.41-2.73-.26-4.07Zm-4.17,0h2.63c.26,1.13,.3,3,.09,4.2-1.05,.05-1.94,.02-2.73,0,.03-1.39,.02-2.99,0-4.21Zm1.95,7.53c.41,.2,.78,.49,.78,.92,0,.87-3.37,2.84-6.75,4.93-.4-.32-.72-.6-.94-.8-1.88-1.8-6.84-3.72-5.3-4.62h0l1.35,.02c3.33,0,4.94-.26,6.6-.4,1.18-.1,2.47-.04,4.26-.05Zm-3.37-7.53c0,1.34,.03,3.1,.06,4.22-.33,.02-.65,.05-.96,.12-1,.22-1.98,.55-3.32,.78-.16-1.44-.25-3.72-.28-5.14l4.49,.02Zm-6.87-.02h.93V7.5c-.48,.04-.98,.06-1.56,.06-.92,0-1.69-.06-2.38-.16,0-.07,0-.14,0-.23-.1-1.21-.13-3.55-.14-4.98,.77-.03,1.63-.05,3.14-.05Zm-8.2,.12h1.24c1.1,0,1.85,0,2.47-.02,.31,1.77,.25,3.97-.1,4.57-.05,.08-.06,.18-.05,.28-.92-.23-1.68-.49-2.46-.67l-.77-.16c-.22-1.12-.42-2.64-.32-3.99Zm-1.46-.02c.2,1.08,.23,2.65,.07,3.75-.92-.11-1.99-.19-3.32-.21,.02-1.24,0-2.57,0-3.61,1.51,0,2.24,.04,3.26,.07Zm-.6,7.28c.22,.45-.39,1.33-2.05,2.49-.86,.6-3.6,2.09-6.82,3.78l-.37-.32c-1.11-.98-2.4-1.65-3.43-2.34-.05-.05-.12-.11-.21-.18-1.21-.99-3.31-2.19-3.81-2.92,3.11-.01,4.38-.24,6-.38,1.66-.14,3.69-.19,7.02-.19,1.48,0,2.67,.02,3.67,.06Zm-4.08-7.35l.05,3.61c-1.42,0-2.6,.04-3.61,.1-.09-1.32-.14-2.83-.16-3.84,1.08,.05,1.87,.13,3.73,.14Zm-6.52-.2h1.35V6.03c-.52,.07-1,.15-1.45,.25-.83,.18-1.56,.43-2.51,.63-.09-1.33-.11-3.6-.12-4.9,.67-.02,1.47-.04,2.72-.04Zm-7.85,.13h.9c1.33,0,2.15-.02,2.86-.04,.35,1.8,.3,4.13-.07,4.75-.06,.1-.07,.23-.04,.35-.62,.07-1.33,.11-2.17,.11h-1.01c-.27-1.17-.68-3.38-.46-5.17Zm-5.71-.05h.98l3.17,.04c.36,1.47,.33,4.3-.15,5.15-1.6-.04-2.82-.14-3.88-.37l-.14-.04c.05-1.53,.04-3.42,.02-4.78Zm-1.42,0c0,1.39,.03,3.26,.07,4.41-1.14-.34-2.52-.73-4.23-.88-.07-1.2-.12-2.51-.14-3.45l4.3-.08Zm-2.28,7.44c.24,.18,.55,.39,.96,.63,1.54,.9-3.42,2.82-5.3,4.62-.2,.19-.48,.43-.84,.72-3.42-2.07-6.86-4.02-6.86-4.88,0-.29,.17-.51,.41-.69,.75-.1,1.38-.22,2.1-.28,1.66-.14,2.83-.27,6.15-.27,1.28,0,2.39,.06,3.37,.13Zm-3.6-7.35h.14v3.37c-1.51,0-2.57,.07-3.43,.19-.04-1.23-.06-2.7-.07-3.66,.83,.05,1.7,.1,3.36,.1Zm-8.55-.19c.44-.02,.96-.03,1.59-.03,.95,0,1.63,.02,2.2,.04,.27,1.3,.32,2.91,.19,3.95l-1.35,.3c-.76,.17-1.43,.48-2.25,.78-.27-1.26-.62-3.35-.38-5.03Zm-4.43,5.4c.07-1.54,.06-3.62,.04-5.12,1.28-.03,2-.1,2.79-.17,.39,1.53,.34,4.61-.21,5.3-.05,.07-.08,.13-.09,.18-.49,.07-1.04,.1-1.67,.1-.31,0-.6,0-.88-.02l.02-.27Zm-4.3-.62c-.13-1.45-.2-3.4-.22-4.64,.83,.06,1.64,.13,3.15,.14,.01,1.86,.04,4.46,.12,5.11l.03,.15c-1.29-.18-2.22-.49-3.07-.77Zm-7.02,9.66c4.01-2.05,7.91-3.87,8.61-4.24,.71-.38,1.92-.96,3.06-1.5,2.34,.99,7.22,3.97,9.95,5.67-2.46,1.86-6.42,4.54-9.14,5.95-3.51-1.2-8.1-3.1-12.48-5.89Zm26.15,6.16c-3.33,0-5.96,.12-7.63,.26l-2.12,.2c-.19-.09-.37-.2-.54-.3-.74-.46,3.71-3.42,7.07-5.55l.62,.39c3.77,2.43,7.22,4.21,7.75,5.19-1.25-.1-2.57-.19-5.17-.19Zm8.31-.38c-2.99-1.64-7.71-4.25-10.26-5.81l1.76-1.1c1.75-1.11,6.88-3.97,9.24-5.2,2.63,1.51,6.07,3.85,10.17,6.53-4.16,2.17-8.71,4.47-10.91,5.58Zm17.63,.41c-3.33,0-5.38,.07-7.04,.21-1.6,.14-2.84,.48-5.88,.51-.1-.06-.23-.13-.39-.2-1.44-.64,2.92-3.26,7.7-5.78,1.98,1.29,4.1,2.64,6.36,4,.23,.32,.54,.86,.46,1.27h-1.2Zm6.22-.04c-3.05-1.08-6.68-2.89-10.45-5.95,4.08-2.09,8.1-3.97,8.81-4.34,.63-.33,1.66-.83,2.68-1.32,2.58,1.4,6.18,3.43,7.59,4.32l1.89,1.19c-2.56,1.6-7.49,4.4-10.53,6.1Zm13.59,.31c-1.66,.14-3.18,.2-6.5,.2l-2.05-.02c-.63-.83,2.11-3.23,6.35-6.06,3.21,2.03,7.63,4.93,7.41,5.63-2.32,.03-3.85,.13-5.2,.24Zm9.21-.24c-2.77-1.31-7.41-4.45-10.06-6.47,2.23-1.33,7.52-4.42,10.08-5.46,2.56,1.04,7.85,4.13,10.08,5.46-2.65,2.02-7.29,5.16-10.06,6.47h-.04Zm17.88,.27l-.29,.03c-1.66,.14-3.52-.04-6.7,.11-3.62,.17-4.76-.05-6.43-.19h-.14l-.2-.13c-.76-.48,3.95-3.58,7.34-5.72,4,2.67,6.67,4.96,6.42,5.9Zm5.37-.37h-.44c-3.04-1.7-7.95-4.48-10.5-6.08l1.89-1.19c1.44-.91,5.16-3.01,7.75-4.41,1.08,.51,2.19,1.05,2.86,1.41,.72,.38,4.73,2.25,8.81,4.34-3.74,3.03-7.35,4.85-10.38,5.92Zm19.46,.57l-.06,.03c-1.33,.06-2.97,.08-5.16,.08-3.33,0-5.16-.11-6.83-.25l-2.43-.25c-.18-.41,.18-1.03,.42-1.38,2.25-1.36,4.37-2.71,6.36-4,4.79,2.52,9.14,5.14,7.7,5.78Zm-6.59-6.5c3.46-2.26,6.45-4.29,8.88-5.77,2.56,1.15,7.35,4.05,9.42,5.33-2.11,1.67-5.52,4.1-8.15,5.63-2.38-1.2-6.42-3.25-10.14-5.19Zm25.71,6.47l-.1,.12c-1.6-.12-2.85-.3-3.88-.39-1.66-.14-3.74-.15-7.06-.15-.84,0-1.55,.02-2.17,.04-.49-.58,3.92-3.59,7.11-5.68,4.1,2.84,6.75,5.25,6.11,6.07Zm13.97-6.57c-3.85,2.01-8.05,4.14-10.39,5.32-2.9-1.69-6.74-3.97-8.87-5.35l1.82-1.19c1.52-1,5.67-3.41,8.15-4.78,2.5,1.5,5.63,3.62,9.28,6.01Zm-4.75-9.7c-.35,.08-.76,.15-1.19,.22-.14-1.45-.22-3.53-.25-4.86,1.64-.03,2.32-.09,3.72-.13,0,1.3,.02,3.04,.06,4.21-.86,.18-1.57,.39-2.34,.56Z"/></g></g></svg>